<?xml version="1.0" encoding="UTF-8"?><svg id="Star" xmlns="http://www.w3.org/2000/svg" width="80" height="80" xmlns:xlink="http://www.w3.org/1999/xlink" viewBox="0 0 80 80"><defs><style>.cls-1{fill:url(#linear-gradient);}.cls-1,.cls-2,.cls-3{stroke-width:0px;}.cls-2{fill:#bcd;}.cls-3{fill:#0a1d29;}</style><linearGradient id="linear-gradient" x1="40" y1="79.82" x2="40" y2="2.9" gradientUnits="userSpaceOnUse"><stop offset="0" stop-color="#c8c8ff"/><stop offset="1" stop-color="#9696b4"/></linearGradient></defs><g id="k2"><path class="cls-3" d="M77.15,17.3c.05,2.85,1.78,55.76,0,58.35-1.78,2.59-3,3.17-5.57,3.17-21.31-.06-42.62-.03-63.93-.07-3.87,0-5.57-1.8-5.58-5.67-.02-17.72-.04-35.45.06-53.17,0-1.29.64-2.83,1.49-3.8,2.54-2.91,5.35-5.58,8.02-8.38,2.5-2.62,5.46-3.83,9.14-3.8,12.32.1,24.64.11,36.96-.01,4.17-.04,7.45,1.33,10.28,4.37,3.29,3.05,8.98,7.26,9.14,9.03ZM66.68,34.32s0,0,.01,0c0-6.48.01-12.97,0-19.45-.01-5.27-2.7-8.05-7.95-8.06-12.69-.04-25.38-.04-38.06,0-5.57.01-8.23,2.72-8.24,8.35-.03,12.97-.02,25.93,0,38.9.01,5.74,2.94,8.68,8.65,8.69,12.24.03,24.48.04,36.71.02,6.06,0,8.86-2.87,8.88-8.99.02-6.48,0-12.97,0-19.45ZM73.21,76.82c.55-1.63,2.15-2.2,1.83-2.74-2.32-3.88-5.63-8.29-8.2-12.21-.97.86-1.62,1.44-2.39,2.12,2.79,4.09,5.5,8.05,8.75,12.82ZM12.36,61.93c-2.87,4.33-5.51,8.33-8.23,12.44.88.68,1.48,1.14,2.26,1.74,2.83-4.12,5.55-8.08,8.35-12.16-.8-.68-1.45-1.23-2.38-2.02ZM58.81,9.21c-12.5-.02-25.49-.02-37.99,0-3.91,0-5.64,1.23-5.66,5.17-.04,6.48,0,13.46,0,19.93h-.03v20.21c0,4.33,1.72,5.63,6.09,5.65,12.23.03,24.95.03,37.18,0,4.29,0,5.6-1.32,5.61-5.68.03-13.05.05-27.09.05-40.13,0-3.86-1.29-5.15-5.23-5.16Z"/><path class="cls-1" d="M57.91,3.9c4.08,0,7.3,1.37,10.09,4.37,3.29,3.05,8.98,7.26,9.14,9.03.05,2.85,1.78,55.76,0,58.35-1.77,2.57-2.99,3.17-5.52,3.17-.02,0-.03,0-.05,0-21.31-.06-42.62-.03-63.93-.07-3.87,0-5.57-1.8-5.58-5.67-.02-17.72-.04-35.45.06-53.17,0-1.29.64-2.83,1.49-3.8,2.54-2.91,5.35-5.58,8.02-8.38,2.47-2.59,5.39-3.8,9.01-3.8.04,0,.09,0,.13,0,6.2.05,12.39.08,18.59.08s12.25-.03,18.37-.09c.06,0,.12,0,.19,0M43.41,62.77c4.8,0,9.6,0,14.4-.01,6.06,0,8.86-2.87,8.88-8.99.02-6.48,0-12.97,0-19.45h.01c0-6.48.01-12.97,0-19.45-.01-5.27-2.7-8.05-7.95-8.06-6.46-.02-12.92-.03-19.39-.03s-12.45,0-18.68.02c-5.57.01-8.23,2.72-8.24,8.35-.03,12.97-.02,25.93,0,38.9.01,5.74,2.94,8.68,8.65,8.69,7.44.02,14.88.03,22.32.03M73.21,76.82c.55-1.63,2.15-2.2,1.83-2.74-2.32-3.88-5.63-8.29-8.2-12.21-.97.86-1.62,1.44-2.39,2.12,2.79,4.09,5.5,8.05,8.75,12.82M6.39,76.1c2.83-4.12,5.55-8.08,8.35-12.16-.8-.68-1.45-1.23-2.38-2.02-2.87,4.33-5.51,8.33-8.23,12.44.88.68,1.48,1.14,2.26,1.74M36.55,9.19c7.46,0,14.94,0,22.26.02,3.94,0,5.23,1.29,5.23,5.16,0,13.04-.02,27.08-.05,40.13,0,4.36-1.31,5.68-5.61,5.68-5.5,0-11.09.01-16.7.01-6.87,0-13.75,0-20.48-.02-4.37-.02-6.1-1.32-6.09-5.65v-20.21h.03c0-6.48-.03-13.46,0-19.93.02-3.95,1.75-5.16,5.66-5.17,5.19,0,10.45,0,15.74,0M57.91,2.9h-.2c-5.87.06-12.04.09-18.36.09-5.95,0-12.03-.03-18.58-.08h-.14c-3.91,0-7.09,1.35-9.73,4.11-.92.96-1.87,1.93-2.8,2.87-1.76,1.78-3.57,3.62-5.25,5.55-1.03,1.18-1.73,2.97-1.73,4.45-.09,17.32-.08,34.93-.06,51.95v1.22c0,4.48,2.16,6.66,6.58,6.67,9.58.02,19.17.02,28.75.03,11.53,0,23.45.01,35.18.04,3.02,0,4.5-.84,6.4-3.6.53-.77,1.77-2.58.24-56.42-.04-1.33-.06-2.21-.07-2.52v-.04s0-.04,0-.04c-.15-1.6-2.51-3.68-6.34-6.94-1.13-.96-2.2-1.87-3.1-2.7-2.97-3.18-6.4-4.66-10.8-4.66h0ZM43.41,61.77c-7.44,0-14.88,0-22.32-.03-5.13-.01-7.64-2.53-7.65-7.69-.03-12.86-.03-25.95,0-38.89.01-5.07,2.25-7.34,7.25-7.35,6.23-.02,12.45-.02,18.68-.02s12.92,0,19.38.03c4.66.01,6.94,2.33,6.95,7.07.01,4.52,0,9.05,0,13.57v4.87h0v1s-.01,5.91-.01,5.91c0,4.51,0,9.02,0,13.54-.01,5.59-2.37,7.98-7.88,7.99-4.8,0-9.6.01-14.39.01h0ZM65.78,64.16l.87-.77c.84,1.26,1.75,2.56,2.63,3.82,1.62,2.33,3.3,4.73,4.65,6.95-.03.03-.05.05-.08.07-.2.19-.45.43-.7.72l-6.22-9.12-1.15-1.68h0ZM5.48,74.14l2.58-3.9,4.51-6.83.74.62.1.08-4.5,6.55-2.74,3.99-.68-.53h0ZM36.55,8.19c-5.28,0-10.55,0-15.74,0-4.64.01-6.63,1.86-6.65,6.17-.03,4.55-.02,9.38-.01,14.05,0,1.65,0,3.28,0,4.89l-.03.99v20.21c-.01,4.76,1.98,6.63,7.08,6.65,6.73.02,13.62.02,20.48.02,5.61,0,11.21,0,16.7-.01,4.86,0,6.59-1.75,6.6-6.68.03-14.24.05-28.12.05-40.14,0-4.42-1.75-6.14-6.23-6.16-7.32-.01-14.8-.02-22.26-.02h0Z"/><path class="cls-2" d="M66.68,34.32c0,6.48.01,12.97,0,19.45-.01,6.12-2.82,8.98-8.88,8.99-12.24.02-24.48.01-36.71-.02-5.71-.01-8.63-2.95-8.65-8.69-.03-12.97-.03-25.93,0-38.9.01-5.63,2.68-8.34,8.24-8.35,12.69-.03,25.38-.03,38.06,0,5.24.02,7.93,2.79,7.95,8.06.02,6.48,0,12.97,0,19.45,0,0,0,0-.01,0ZM15.15,34.31s-.02,0-.03,0c0,6.57,0,13.64,0,20.2,0,4.34,1.72,5.64,6.09,5.65,12.23.04,24.96.03,37.19.02,4.29,0,5.59-1.32,5.6-5.69.03-13.05.05-27.09.05-40.14,0-3.86-1.29-5.15-5.22-5.15-12.5-.02-25.5-.02-38,0-3.92,0-5.64,1.22-5.66,5.17-.03,6.48,0,13.46,0,19.93ZM75.04,74.08c-2.32-3.88-5.63-8.29-8.2-12.21-.97.86-1.62,1.44-2.39,2.12,2.79,4.09,5.5,8.05,8.75,12.82.86-.94,2.15-2.2,1.83-2.74ZM4.13,74.36c.88.68,1.48,1.14,2.26,1.74,2.83-4.12,5.55-8.08,8.35-12.16-.8-.68-1.45-1.23-2.38-2.02-2.87,4.33-5.51,8.33-8.23,12.44Z"/><path class="cls-2" d="M47.33,33.48l-2.33,4.08-9.65-6.38.79,11.74h-4.91l.76-11.74-9.85,6.38-2.16-4.02,10.54-5.18-10.54-5.29,2.37-4.02,9.71,6.49-.82-11.74h4.91l-.86,11.74,9.71-6.56,2.4,4.22-10.57,5.22,10.5,5.04Z"/></g></svg>