<svg xmlns="http://www.w3.org/2000/svg" width="750" height="630.455" viewBox="0 0 750 630.455">
    <path d="M664.368 213.96c-6.72-16.682-20.542-20.877-21.818-22.003-11.701-10.336-2.474-21.214-19.946-30.695-18.278-9.914-71.979-36.997-114.22-31.375-9.225 1.235-27.837 17.608-41.214 17.608H282.84c-13.377 0-31.99-16.374-41.215-17.608-42.248-5.622-95.939 21.461-114.22 31.375-17.472 9.481-8.243 20.359-19.941 30.695-1.281 1.125-15.104 5.321-21.823 22.003C22.889 369.983-1.741 469.114.095 529.129c2.891 94.416 76.578 101.326 76.578 101.326 37.033-8.617 111.55-129.135 168.535-129.135h259.594c56.985 0 131.502 120.518 168.538 129.135 0 0 73.678-6.91 76.563-101.326 1.864-60.015-22.81-159.146-85.535-315.169z" fill="#1a1a1a"/>
    <path fill="#050505" d="M664.368 213.96c-3.344-8.304-8.445-13.518-12.894-16.797-3.021-2.237-5.732-3.563-7.392-4.378-.772-.384-1.313-.642-1.527-.819-33.563-18.007-97.459-38.153-117.479-34.305-26.01 5.024-65.536 79.714-88.969 79.714H315.123c-23.435 0-62.966-74.69-88.973-79.714-19.583-3.779-85.589 16.456-118.749 34.331-.214.163-.614.362-1.155.65-1.761.849-5.067 2.418-8.698 5.268-4.194 3.308-8.812 8.352-11.911 16.051C22.889 369.983-1.741 469.114.095 529.129c2.891 94.416 76.578 101.326 76.578 101.326 37.033-8.617 111.55-129.135 168.535-129.135h259.594c56.985 0 131.502 120.518 168.538 129.135 0 0 73.678-6.91 76.563-101.326 1.864-60.015-22.81-159.146-85.535-315.169z"/>
    <!-- Left stick area -->
    <g stroke-width="2" stroke-miterlimit="10">
        <path fill="#080808" stroke="#140C0C" d="M185.468 351.49c-37.328 0-67.695-30.365-67.695-67.688 0-37.323 30.366-67.686 67.695-67.686 37.336 0 67.707 30.363 67.707 67.686 0 37.323-30.37 67.688-67.707 67.688z"/>
        <path stroke="#120B0B" d="M241.571 279.865c0 30.977-25.106 56.084-56.103 56.084-30.981 0-56.092-25.107-56.092-56.084 0-31 25.111-56.106 56.092-56.106 30.997 0 56.103 25.106 56.103 56.106z"/>
    </g>
    <!-- D-pad -->
    <path fill="#141414" d="M277.671 452.698c-7.132 0-12.742-1.323-13.049-3.078a1.058 1.058 0 0 1-.014-.148v-34.424a.5.5 0 0 0-.5-.5h-34.42c-1.82 0-3.246-5.735-3.246-13.057s1.426-13.057 3.246-13.057h34.42a.5.5 0 0 0 .5-.5v-34.429c0-.043.007-.093.014-.144l.06-.227c.029-.041.066-.107.082-.134.495-.81 2.105-1.517 4.535-1.991.295-.064.592-.127.889-.183.351-.063.658-.112.958-.136a1.76 1.76 0 0 0 .162-.025c.255-.029.579-.072.907-.111a42.27 42.27 0 0 1 2.041-.189l2.369-.077c.353-.009.701-.015 1.047-.015 7.325 0 13.063 1.418 13.063 3.229l.001 34.427a.5.5 0 0 0 .5.5h34.419c1.809 0 3.226 5.734 3.226 13.059 0 7.319-1.417 13.057-3.226 13.057h-34.419a.5.5 0 0 0-.5.5v34.424a.943.943 0 0 1-.015.152c-.306 1.754-5.917 3.077-13.05 3.077z"/>
    <!-- Right stick area -->
    <g stroke-width="2" stroke-miterlimit="10">
        <path fill="#080808" stroke="#140C0C" d="M473.042 465.461c-37.324 0-67.688-30.364-67.688-67.686 0-37.326 30.363-67.706 67.688-67.706 37.322 0 67.707 30.379 67.707 67.706 0 37.323-30.385 67.686-67.707 67.686z"/>
        <path stroke="#120B0B" d="M529.151 393.815c0 30.999-25.106 56.104-56.109 56.104-30.975 0-56.083-25.104-56.083-56.104 0-30.979 25.108-56.086 56.083-56.086 31.003 0 56.109 25.107 56.109 56.086z"/>
    </g>
    <!-- Menu / View buttons -->
    <path fill="#1A1615" d="M448.915 280.366c0 10.397-8.42 18.817-18.789 18.817-10.398 0-18.819-8.42-18.819-18.817 0-10.371 8.421-18.805 18.819-18.805 10.369.001 18.789 8.434 18.789 18.805z"/>
    <path fill="#0A0A0A" stroke="#000" stroke-miterlimit="10" d="M446.228 280.366c0 8.902-7.229 16.103-16.102 16.103-8.902 0-16.103-7.201-16.103-16.103 0-8.896 7.198-16.103 16.103-16.103 8.873.001 16.102 7.208 16.102 16.103z"/>
    <path fill="#6D6B6C" d="M422.931 275.741h14.361v1.552h-14.361v-1.552zm0 3.919h14.361v1.552h-14.361v-1.552zm0 3.809h14.361v1.533h-14.361v-1.533z"/>
    <path fill="#1A1615" d="M340.938 280.366c0 10.397-8.422 18.817-18.817 18.817-10.368 0-18.789-8.42-18.789-18.817 0-10.371 8.42-18.805 18.789-18.805 10.395.001 18.817 8.434 18.817 18.805z"/>
    <path fill="#0A0A0A" stroke="#000" stroke-miterlimit="10" d="M338.221 280.366c0 8.902-7.201 16.103-16.103 16.103-8.872 0-16.104-7.201-16.104-16.103 0-8.896 7.231-16.103 16.104-16.103 8.902.001 16.103 7.208 16.103 16.103z"/>
    <!-- Xbox button / guide area -->
    <path fill="#FFF" d="M407.579 196.412c0 17.993-14.58 32.577-32.574 32.577-17.995 0-32.574-14.584-32.574-32.577 0-17.983 14.579-32.575 32.574-32.575 17.994 0 32.574 14.592 32.574 32.575z"/>
    <!-- Face buttons ABXY -->
    <path fill="#0A0A0A" d="M566.491 354.511c-13.786 0-25.002-11.221-25.002-25.013 0-13.791 11.216-25.009 25.002-25.009 13.796 0 25.02 11.218 25.02 25.009s-11.224 25.013-25.02 25.013z"/>
    <path fill="#1A1615" d="M566.491 305.978c13.004 0 23.531 10.526 23.531 23.521 0 12.996-10.527 23.523-23.531 23.523-12.985 0-23.516-10.526-23.516-23.523.002-12.995 10.531-23.521 23.516-23.521m0-2.978C551.884 303 540 314.888 540 329.498 540 344.11 551.885 356 566.491 356 581.108 356 593 344.11 593 329.498c0-14.61-11.892-26.498-26.509-26.498z"/>
    <path fill="#0A0A0A" d="M566.491 253.51c-13.786 0-25.002-11.224-25.002-25.021 0-13.786 11.216-25.001 25.002-25.001 13.796 0 25.02 11.216 25.02 25.001 0 13.798-11.224 25.021-25.02 25.021z"/>
    <path fill="#1A1615" d="M566.491 204.978c13.004 0 23.531 10.527 23.531 23.513 0 13.004-10.527 23.532-23.531 23.532-12.985 0-23.516-10.528-23.516-23.532.002-12.986 10.531-23.513 23.516-23.513m0-2.978C551.884 202 540 213.884 540 228.49c0 14.616 11.885 26.51 26.491 26.51C581.108 255 593 243.106 593 228.49c0-14.607-11.892-26.49-26.509-26.49z"/>
    <path fill="#0A0A0A" d="M516.486 304.511c-13.784 0-24.997-11.224-24.997-25.019 0-13.788 11.213-25.005 24.997-25.005 13.799 0 25.022 11.218 25.022 25.005.003 13.796-11.223 25.019-25.022 25.019z"/>
    <path fill="#1A1615" d="M516.486 255.978c13.009 0 23.536 10.527 23.536 23.516 0 13.002-10.526 23.529-23.536 23.529-12.98 0-23.511-10.527-23.511-23.529.004-12.989 10.531-23.516 23.511-23.516m0-2.978C501.882 253 490 264.885 490 279.493 490 294.108 501.882 306 516.486 306c14.62 0 26.514-11.892 26.514-26.507C543 264.885 531.105 253 516.486 253z"/>
    <path fill="#0A0A0A" d="M616.493 304.511c-13.787 0-25.004-11.224-25.004-25.018 0-13.789 11.217-25.004 25.004-25.004 13.795 0 25.018 11.217 25.018 25.004 0 13.795-11.223 25.018-25.018 25.018z"/>
    <path fill="#1A1615" d="M616.493 255.978c13 0 23.528 10.527 23.528 23.517 0 13.002-10.528 23.528-23.528 23.528-12.988 0-23.518-10.526-23.518-23.528.002-12.99 10.53-23.517 23.518-23.517m0-2.978C601.885 253 590 264.885 590 279.493 590 294.108 601.885 306 616.493 306 631.109 306 643 294.108 643 279.493 643 264.885 631.109 253 616.493 253z"/>
    <!-- Trigger areas -->
    <path fill="#1A1A1A" d="M549.249 5.475a24.041 24.041 0 0 0-1.212-.9l-2.349 110.179L599 122C586.926 4.982 555.996 10.78 549.249 5.475z"/>
    <path fill="#141414" d="M522.191.142C511.359.546 510.119 11.601 510 15.358v1.229s2.899 40.784 0 93.25c9.934 2.293 38.564 5.307 38.564 5.307s.032-20.949.686-50.681c.803-37.564-1.212-59.888-1.212-59.888C541.616.091 534.459-.308 522.191.142z"/>
    <path fill="#1A1A1A" d="M200.752 5.475c.401-.319.805-.619 1.212-.9l2.323 110.179L151 122C163.076 4.982 193.991 10.78 200.752 5.475z"/>
    <path fill="#141414" d="M227.798.142C238.639.546 239.876 11.601 240 15.358v1.229s-2.903 40.784 0 93.25c-9.933 2.293-38.568 5.307-38.568 5.307s-.051-20.949-.68-50.681c-.812-37.564 1.212-59.888 1.212-59.888C208.386.091 215.54-.308 227.798.142z"/>
    <!-- Bumper/shoulder area -->
    <path fill="#1A1A1A" d="M375.615 156.499s-88.917-1.067-100.548-2.973l-16.384 30.538c20.238 23.271 41.583 53.312 56.441 53.312H436.11c14.872 0 36.194-30.041 56.463-53.312l-16.383-30.538c-11.63 1.905-100.575 2.973-100.575 2.973z"/>
    <path fill="#0D0D0D" d="M476.191 153.526l-3.641-6.778c-1.854.48-3.65.748-5.384.748h-184.33c-1.392 0-2.818-.189-4.282-.501l-3.49 6.531c11.631 1.905 100.548 2.973 100.548 2.973s88.948-1.068 100.579-2.973z"/>
</svg>